HIERARCHY
ROOT Hips
{
	OFFSET	0.00	0.00	0.00
	CHANNELS 6 Xposition Yposition Zposition Zrotation Xrotation Yrotation
	JOINT LeftUpLeg
	{
		OFFSET	 0.126116	-0.014019	-0.065224
		CHANNELS 3 Zrotation Xrotation Yrotation
		JOINT LeftLeg
		{
			OFFSET	 0.000000	 0.000000	 0.569914
			CHANNELS 3 Zrotation Xrotation Yrotation
			JOINT LeftFoot
			{
				OFFSET	 0.000000	 0.000000	 0.544423
				CHANNELS 3 Zrotation Xrotation Yrotation
				JOINT LeftToeBase
				{
					OFFSET	 0.000000	 0.000000	 0.207117
					CHANNELS 3 Zrotation Xrotation Yrotation
					End Site
					{
						OFFSET	 0.000000	 0.000000	 0.207117
					}
				}
			}
		}
	}
	JOINT RightUpLeg
	{
		OFFSET	-0.124023	-0.008373	-0.065224
		CHANNELS 3 Zrotation Xrotation Yrotation
		JOINT RightLeg
		{
			OFFSET	 0.000000	 0.000000	 0.570047
			CHANNELS 3 Zrotation Xrotation Yrotation
			JOINT RightFoot
			{
				OFFSET	 0.000000	 0.000000	 0.544354
				CHANNELS 3 Zrotation Xrotation Yrotation
				JOINT RightToeBase
				{
					OFFSET	 0.000000	 0.000000	 0.207540
					CHANNELS 3 Zrotation Xrotation Yrotation
					End Site
					{
						OFFSET	 0.000000	 0.000000	 0.207540
					}
				}
			}
		}
	}
	JOINT Spine
	{
		OFFSET	 0.000184	-0.007763	 0.117403
		CHANNELS 3 Zrotation Xrotation Yrotation
		JOINT Spine1
		{
			OFFSET	 0.000000	 0.000000	 0.137269
			CHANNELS 3 Zrotation Xrotation Yrotation
			JOINT Spine2
			{
				OFFSET	 0.000000	 0.000000	 0.156879
				CHANNELS 3 Zrotation Xrotation Yrotation
				JOINT LeftShoulder
				{
					OFFSET	 0.080501	-0.002496	 0.160144
					CHANNELS 3 Zrotation Xrotation Yrotation
					JOINT LeftArm
					{
						OFFSET	 0.000000	 0.000000	 0.164363
						CHANNELS 3 Zrotation Xrotation Yrotation
						JOINT LeftForeArm
						{
							OFFSET	 0.000000	 0.000000	 0.364576
							CHANNELS 3 Zrotation Xrotation Yrotation
							JOINT LeftHand
							{
								OFFSET	 0.000000	 0.000000	 0.360812
								CHANNELS 3 Zrotation Xrotation Yrotation
								JOINT LeftHandIndex1
								{
									OFFSET	 0.000000	 0.000000	 0.086006
									CHANNELS 3 Zrotation Xrotation Yrotation
									JOINT LeftHandIndex2
									{
										OFFSET	 0.000000	 0.000000	 0.047237
										CHANNELS 3 Zrotation Xrotation Yrotation
										JOINT LeftHandIndex3
										{
											OFFSET	-0.004284	-0.000551	 0.038165
											CHANNELS 3 Zrotation Xrotation Yrotation
											End Site
											{
												OFFSET	-0.004284	-0.000551	 0.038165
											}
										}
									}
								}
							}
						}
					}
				}
				JOINT Neck
				{
					OFFSET	 0.000000	 0.000000	 0.176489
					CHANNELS 3 Zrotation Xrotation Yrotation
					JOINT Head
					{
						OFFSET	 0.000000	-0.001747	 0.077940
						CHANNELS 3 Zrotation Xrotation Yrotation
						End Site
						{
							OFFSET	 0.000000	-0.001747	 0.077940
						}
					}
				}
				JOINT RightShoulder
				{
					OFFSET	-0.080363	 0.000306	 0.159706
					CHANNELS 3 Zrotation Xrotation Yrotation
					JOINT RightArm
					{
						OFFSET	 0.000000	 0.000000	 0.164196
						CHANNELS 3 Zrotation Xrotation Yrotation
						JOINT RightForeArm
						{
							OFFSET	 0.000000	 0.000000	 0.365611
							CHANNELS 3 Zrotation Xrotation Yrotation
							JOINT RightHand
							{
								OFFSET	 0.000000	 0.000000	 0.360648
								CHANNELS 3 Zrotation Xrotation Yrotation
								JOINT RightHandIndex1
								{
									OFFSET	 0.000000	 0.000000	 0.069977
									CHANNELS 3 Zrotation Xrotation Yrotation
									JOINT RightHandIndex2
									{
										OFFSET	 0.000000	 0.000000	 0.052305
										CHANNELS 3 Zrotation Xrotation Yrotation
										JOINT RightHandIndex3
										{
											OFFSET	 0.009002	-0.000782	 0.042196
											CHANNELS 3 Zrotation Xrotation Yrotation
											End Site
											{
												OFFSET	 0.009002	-0.000782	 0.042196
											}
										}
									}
								}
							}
						}
					}
				}
			}
		}
	}
}
MOTION
Frames:    10
Frame Time: 0.03333334
-0.450744	-0.033227	 1.272474	 179.952500	-3.788131	 1.897164	-9.358181	 0.920209	-177.459900	-6.842212	-14.056970	-1.807727	 22.766370	 72.468150	-35.343430	-2.385833	 28.452760	 0.000004	 44.928160	-1.988978	 171.262200	 2.036189	-8.462791	 0.075576	-3.684599	 63.424950	 20.750390	 2.384659	 28.388700	-0.000001	-2.683643	 9.319501	-2.777785	-0.616037	 0.368233	-3.432920	 3.617354	-2.080913	 6.936332	-91.776120	 78.527360	 180.000000	-50.514350	-0.565443	 1.790742	 1.025909	-2.467776	-39.292420	-0.889061	-38.734860	-2.055221	-4.130319	 21.525730	 0.991547	-5.167930	 0.731704	 3.519349	-1.378229	 35.397820	-2.634230	-2.567458	 0.312059	 1.419082	-12.793480	-25.912800	-12.218820	 89.782160	 78.203890	 180.000000	 11.064160	-8.653150	-8.779802	-14.687350	-7.803462	 41.799340	 33.482040	 47.700530	 80.193980	 5.716227	 19.173190	-3.685159	 5.027444	 0.246877	-9.377972	-2.350882	 35.473990	 5.254307
-0.450981	-0.033384	 1.272180	-179.933400	-3.968659	 2.261121	-7.340524	 0.153852	-178.016200	-7.879252	-16.382850	-2.396712	 26.253190	 73.759980	-38.080550	-2.385833	 28.452760	 0.000004	 44.667110	-2.652173	 170.997100	 2.572562	-9.858203	 0.179778	-5.818219	 63.371680	 22.653190	 2.384659	 28.388700	-0.000001	-2.664401	 9.452730	-3.082546	-0.653493	 1.111748	-3.956727	 3.503104	-3.170926	 7.469902	-91.776120	 78.527420	 180.000000	-55.052980	 1.999867	 6.619930	 0.240502	-2.604082	-49.442670	-1.193285	-38.197290	-2.298152	-4.130319	 21.525730	 0.991547	-5.167930	 0.731704	 3.519349	-1.378229	 35.397820	-2.634230	-2.798959	 0.671376	 1.694837	-13.374960	-27.147060	-13.489650	 89.782090	 78.203830	-180.000000	 13.199240	-7.505249	-12.053330	-13.538340	-9.319624	 50.943020	 36.997480	 50.564290	 79.175860	 5.716227	 19.173190	-3.685159	 5.027444	 0.246877	-9.377972	-2.350882	 35.473990	 5.254307
-0.451605	-0.034052	 1.270588	-179.639600	-4.172009	 2.834846	-4.597596	-2.340806	-178.709700	-9.767151	-22.774880	-4.035490	 36.196530	 77.169530	-46.993040	-2.385833	 28.452760	 0.000004	 43.719010	-5.597873	 171.016300	 3.509532	-16.612630	 0.568260	-9.666121	 65.911160	 26.123600	 2.384659	 28.388700	-0.000001	-3.061929	 9.582753	-3.504046	-1.007133	 2.542199	-4.962776	 3.393230	-4.966027	 8.417602	-91.776200	 78.527420	-180.000000	-60.884940	 9.597880	 21.754370	-1.526557	-2.698472	-80.329290	-1.874558	-37.558620	-2.602820	-4.130319	 21.525730	 0.991547	-5.167930	 0.731704	 3.519349	-1.378229	 35.397820	-2.634230	-3.169418	 1.225968	 2.208360	-14.371800	-28.985380	-15.779990	 89.782100	 78.203890	 180.000000	 16.423970	-1.965349	-20.734650	-8.227452	-12.122660	 79.748410	 50.737310	 46.359630	 63.778290	 5.716227	 19.173190	-3.685159	 5.027444	 0.246877	-9.377972	-2.350882	 35.473990	 5.254307
-0.452903	-0.035953	 1.265582	-179.045100	-3.796157	 2.705103	-6.373785	-7.100079	-177.484500	-10.776060	-33.542650	-6.321904	 60.578760	 82.147820	-71.852860	-2.385833	 28.452760	 0.000004	 42.047790	-10.531040	 173.074200	 3.942788	-29.709060	 1.199961	-10.326130	 74.361240	 26.163950	 2.384659	 28.388700	-0.000001	-5.095847	 9.243959	-3.079130	-2.305794	 3.579825	-5.754183	 3.534579	-5.128968	 8.920273	-91.776200	 78.527380	-180.000000	-38.257080	 36.340660	 29.207920	-3.747056	-2.386365	-126.439200	-1.697430	-38.518490	-2.627462	-4.130319	 21.525730	 0.991547	-5.167930	 0.731704	 3.519349	-1.378229	 35.397820	-2.634230	-3.098128	 0.933354	 2.178994	-14.197430	-28.278940	-15.855190	 89.782170	 78.203900	 179.999900	 5.768457	 26.338360	-12.456690	-0.645899	-9.763684	 119.164700	 39.243930	 7.461633	 27.327510	 5.716227	 19.173190	-3.685159	 5.027444	 0.246877	-9.377972	-2.350882	 35.473990	 5.254307
-0.454910	-0.038025	 1.260450	-178.395100	-3.506748	 2.530727	-7.445597	-10.352720	-176.186600	-12.273500	-41.488610	-8.583129	 100.416800	 83.188100	-112.006200	-2.385833	 28.452760	 0.000004	 40.973520	-13.178890	 175.291900	 4.567952	-38.358410	 1.890951	-10.390010	 80.371630	 25.507580	 2.384659	 28.388700	-0.000001	-7.092300	 8.903945	-2.775155	-3.562389	 4.832140	-6.074222	 3.546298	-5.467164	 9.158202	-91.776190	 78.527360	-180.000000	 35.714260	 52.553910	-51.057110	-3.298805	-2.666493	-116.221300	-1.739933	-39.135410	-2.660947	-4.130319	 21.525730	 0.991547	-5.167930	 0.731704	 3.519349	-1.378229	 35.397820	-2.634230	-3.021340	 0.266459	 1.321607	-13.876980	-27.393080	-14.011180	 89.782060	 78.203890	-180.000000	-44.497960	 45.544820	 54.586490	-3.908437	-9.998216	 102.167600	 2.000585	-15.718140	 10.402110	 5.716227	 19.173190	-3.685159	 5.027444	 0.246877	-9.377972	-2.350882	 35.473990	 5.254307
-0.460679	-0.040753	 1.256520	-177.327100	-3.557255	 2.163522	-9.916723	-12.073240	-174.409300	-13.092130	-45.978720	-9.908234	 121.912900	 82.069420	-133.930300	-2.385833	 28.452760	 0.000004	 39.067330	-14.008370	 177.359300	 5.341088	-43.572330	 2.633986	-9.854071	 83.814550	 24.362130	 2.384659	 28.388700	-0.000001	-8.850370	 8.649596	-2.586775	-4.342676	 6.049684	-5.032506	 3.315980	-5.813864	 8.641466	-91.776180	 78.527380	-180.000000	 56.637200	 43.733160	-93.646910	-1.298361	-2.837988	-76.369570	-1.883586	-40.025250	-2.717999	-4.130319	 21.525730	 0.991547	-5.167930	 0.731704	 3.519349	-1.378229	 35.397820	-2.634230	-3.311702	 0.335190	 0.741226	-13.914980	-27.025070	-12.641720	 89.782140	 78.203870	 180.000000	-68.379690	 38.666360	 101.830200	-11.981360	-8.747953	 55.673080	-3.432983	-31.693060	 22.554270	 5.716227	 19.173190	-3.685159	 5.027444	 0.246877	-9.377972	-2.350882	 35.473990	 5.254307
-0.467741	-0.042672	 1.256541	-176.644400	-3.876330	 1.954066	-11.898690	-11.730580	-173.570600	-12.567260	-45.034160	-9.370521	 114.683100	 82.568240	-126.823000	-2.385833	 28.452760	 0.000004	 37.430950	-13.443050	 177.738700	 5.680805	-43.459450	 2.862803	-9.783792	 82.809230	 24.163610	 2.384659	 28.388700	-0.000001	-9.041474	 8.821946	-2.502501	-4.049449	 6.183795	-3.859215	 3.137181	-6.079088	 8.096725	-91.776290	 78.527360	-179.999900	 54.351300	 44.575560	-87.540460	-1.641040	-2.844191	-83.077580	-2.017584	-40.676330	-2.766253	-4.130319	 21.525730	 0.991547	-5.167930	 0.731704	 3.519349	-1.378229	 35.397820	-2.634230	-3.882484	 1.893331	 2.115421	-14.734360	-28.282380	-15.797240	 89.782070	 78.203890	-180.000000	-65.276660	 40.545920	 94.402870	-10.496450	-9.461168	 64.694180	-3.350331	-31.385920	 19.383400	 5.716227	 19.173190	-3.685159	 5.027444	 0.246877	-9.377972	-2.350882	 35.473990	 5.254307
-0.477144	-0.044461	 1.256263	-175.452500	-4.204643	 2.260667	-14.598780	-11.257470	-172.951200	-11.758230	-43.862740	-8.605447	 105.281300	 83.124370	-117.639300	-2.385833	 28.452760	 0.000004	 35.408340	-13.756210	 178.110600	 6.463308	-44.578060	 3.472107	-8.024125	 81.370080	 21.979520	 2.384659	 28.388700	-0.000001	-9.191129	 9.154737	-2.655213	-3.202500	 5.402851	-2.671367	 2.942733	-5.365281	 7.404263	-91.776280	 78.527400	-179.999900	 51.886370	 45.745330	-81.388470	-1.989324	-2.902180	-90.061490	-2.090704	-42.012650	-2.835010	-4.130319	 21.525730	 0.991547	-5.167930	 0.731704	 3.519349	-1.378229	 35.397820	-2.634230	-4.091551	 2.091955	 2.321671	-14.758670	-27.798430	-15.908520	 89.782100	 78.203870	 180.000000	-60.958550	 42.541670	 85.686330	-8.900503	-10.014630	 74.034480	-2.881154	-31.731800	 15.359460	 5.716227	 19.173190	-3.685159	 5.027444	 0.246877	-9.377972	-2.350882	 35.473990	 5.254307
-0.483719	-0.044749	 1.255530	-174.497000	-4.165542	 2.202438	-16.821040	-11.031980	-171.980700	-10.971690	-42.685510	-7.876501	 93.589790	 83.475840	-106.168200	-2.385833	 28.452760	 0.000004	 34.548920	-15.259070	 179.397200	 7.251979	-47.954150	 4.261000	-4.872250	 81.750500	 18.385450	 2.384659	 28.388700	-0.000001	-8.896066	 9.418828	-2.248260	-2.009321	 3.382211	-1.775271	 2.651547	-3.786025	 6.685540	-91.776160	 78.527420	 180.000000	 52.621040	 45.281960	-82.503480	-1.978098	-2.991664	-89.845190	-2.108976	-43.258710	-2.905968	-4.130319	 21.525730	 0.991547	-5.167930	 0.731704	 3.519349	-1.378229	 35.397820	-2.634230	-4.064198	 1.146442	 1.578377	-14.359510	-26.311890	-13.856400	 89.782120	 78.203900	 180.000000	-60.611610	 42.839410	 85.225550	-8.816229	-10.073110	 74.569690	-2.948281	-35.263910	 13.234320	 5.716227	 19.173190	-3.685159	 5.027444	 0.246877	-9.377972	-2.350882	 35.473990	 5.254307
-0.487847	-0.045332	 1.256122	-173.479900	-4.076030	 1.604291	-19.510790	-10.825920	-170.711500	-10.050870	-41.279670	-7.046737	 78.420270	 83.643220	-91.236340	-2.385833	 28.452760	 0.000004	 35.452950	-17.118440	-178.538500	 6.971065	-51.469780	 4.267174	 5.528667	 82.185280	 7.774931	 2.384659	 28.388700	-0.000001	-8.023844	 9.708819	-1.582618	-0.248718	 2.156194	 0.120305	 2.389426	-2.760939	 5.390243	-91.776170	 78.527360	 180.000000	 53.162130	 44.742600	-83.482910	-1.992767	-3.090484	-90.122380	-2.159456	-44.845330	-3.009826	-4.130319	 21.525730	 0.991547	-5.167930	 0.731704	 3.519349	-1.378229	 35.397820	-2.634230	-4.055539	-0.210511	 0.644754	-13.941630	-24.493730	-11.313620	 89.782080	 78.203890	-180.000000	-60.253500	 43.320010	 84.681110	-8.656610	-10.217330	 75.617820	-3.663920	-40.588660	 10.473630	 5.716227	 19.173190	-3.685159	 5.027444	 0.246877	-9.377972	-2.350882	 35.473990	 5.254307
